<svg xmlns="http://www.w3.org/2000/svg" xmlns:svg="http://www.w3.org/2000/svg" xmlns:xlink="http://www.w3.org/1999/xlink" id="svg2" width="48" height="48" version="1.0"><metadata id="metadata3505"/><defs id="defs4"><linearGradient id="linearGradient5314"><stop style="stop-color:#000;stop-opacity:.35652173" id="stop5316" offset="0"/><stop id="stop5322" offset=".437" style="stop-color:#000;stop-opacity:.28695652"/><stop style="stop-color:#000;stop-opacity:0" id="stop5318" offset="1"/></linearGradient><linearGradient id="linearGradient3430"><stop style="stop-color:#c00;stop-opacity:1" id="stop3432" offset="0"/><stop id="stop3438" offset=".667" style="stop-color:#c00;stop-opacity:1"/><stop style="stop-color:#c00;stop-opacity:0" id="stop3434" offset="1"/></linearGradient><linearGradient id="linearGradient4481"><stop id="stop4483" offset="0" style="stop-color:#a40000;stop-opacity:1"/><stop style="stop-color:#f57900;stop-opacity:1" id="stop4491" offset=".16"/><stop style="stop-color:#edd400;stop-opacity:1" id="stop4489" offset=".343"/><stop id="stop4495" offset=".554" style="stop-color:#73d216;stop-opacity:1"/><stop style="stop-color:#3465a4;stop-opacity:1" id="stop4499" offset="1"/><stop id="stop4485" offset="1" style="stop-color:#5c3566;stop-opacity:1"/></linearGradient><linearGradient id="linearGradient4430"><stop id="stop4432" offset="0" style="stop-color:#2e3436;stop-opacity:1"/><stop id="stop4434" offset="1" style="stop-color:#000;stop-opacity:1"/></linearGradient><linearGradient id="linearGradient4414"><stop style="stop-color:#eeeeec;stop-opacity:1" id="stop4416" offset="0"/><stop style="stop-color:#d3d7cf;stop-opacity:1" id="stop4418" offset="1"/></linearGradient><linearGradient id="linearGradient4387"><stop id="stop4389" offset="0" style="stop-color:#2e3436;stop-opacity:1"/><stop id="stop4391" offset="1" style="stop-color:#000;stop-opacity:1"/></linearGradient><linearGradient id="linearGradient4402"><stop offset="0" style="stop-color:#e80000;stop-opacity:1" id="stop4404"/><stop offset="1" style="stop-color:#490000;stop-opacity:1" id="stop4406"/></linearGradient><linearGradient id="linearGradient4400" x1="27.217" x2="22.036" y1="15.984" y2="7.135" gradientUnits="userSpaceOnUse" xlink:href="#linearGradient4402"/><linearGradient id="linearGradient3452"><stop offset="0" style="stop-color:#fff;stop-opacity:1" id="stop3454"/><stop offset="1" style="stop-color:#fff;stop-opacity:0" id="stop3456"/></linearGradient><linearGradient id="linearGradient3442"><stop offset="0" style="stop-color:#000;stop-opacity:1" id="stop3444"/><stop offset="1" style="stop-color:#000;stop-opacity:0" id="stop3446"/></linearGradient><linearGradient id="linearGradient3373"><stop offset="0" style="stop-color:#000;stop-opacity:1" id="stop3375"/><stop offset="1" style="stop-color:#373737;stop-opacity:0" id="stop3377"/></linearGradient><linearGradient id="linearGradient3346"><stop offset="0" style="stop-color:#737373;stop-opacity:1" id="stop3348"/><stop offset="1" style="stop-color:#000;stop-opacity:0" id="stop3350"/></linearGradient><linearGradient id="linearGradient3228"><stop offset="0" style="stop-color:#373737;stop-opacity:1" id="stop3230"/><stop offset="1" style="stop-color:#373737;stop-opacity:0" id="stop3232"/></linearGradient><linearGradient id="linearGradient3220"><stop offset="0" style="stop-color:#373737;stop-opacity:1" id="stop3222"/><stop offset="1" style="stop-color:#fff;stop-opacity:1" id="stop3224"/></linearGradient><linearGradient id="linearGradient3198"><stop offset="0" style="stop-color:#fff;stop-opacity:1" id="stop3200"/><stop offset="1" style="stop-color:#fff;stop-opacity:0" id="stop3202"/></linearGradient><linearGradient id="linearGradient3189"><stop offset="0" style="stop-color:#e40000;stop-opacity:1" id="stop3191"/><stop offset="1" style="stop-color:#490000;stop-opacity:1" id="stop3193"/></linearGradient><linearGradient id="linearGradient3171"><stop offset="0" style="stop-color:#fd0000;stop-opacity:1" id="stop3173"/><stop offset="1" style="stop-color:#6a0000;stop-opacity:1" id="stop3175"/></linearGradient><radialGradient id="radialGradient3187" cx="26.625" cy="26.577" r="12.5" fx="26.625" fy="26.577" gradientTransform="matrix(1.4717199,-0.4836227,0.1784028,0.5276254,-15.853782,25.128759)" gradientUnits="userSpaceOnUse" xlink:href="#linearGradient3189"/><linearGradient id="linearGradient3206" x1="30.376" x2="22" y1="25.27" y2="19" gradientTransform="matrix(1.5439563,0,0,1.5428223,-13.002754,-11.785278)" gradientUnits="userSpaceOnUse" xlink:href="#linearGradient3198"/><linearGradient id="linearGradient3226" x1="29" x2="19" y1="33" y2="27" gradientTransform="matrix(1.551329,0,0,1.529349,-13.231894,-11.862931)" gradientUnits="userSpaceOnUse" xlink:href="#linearGradient3220"/><linearGradient id="linearGradient3234" x1="29.455" x2="21.44" y1="19.122" y2="9.277" gradientUnits="userSpaceOnUse" xlink:href="#linearGradient3228"/><linearGradient id="linearGradient3244" x1="25.269" x2="17.799" y1="12.038" y2="5.035" gradientUnits="userSpaceOnUse" xlink:href="#linearGradient3198"/><linearGradient id="linearGradient3274" x1="17.605" x2="23" y1="18.313" y2="18.313" gradientTransform="matrix(1.551329,0,0,1.5293489,-11.904902,-12.881536)" gradientUnits="userSpaceOnUse" xlink:href="#linearGradient3198"/><radialGradient id="radialGradient3361" cx="27.5" cy="22.614" r="6.5" fx="27.5" fy="22.614" gradientTransform="matrix(2.3866597,-0.117642,0.1489799,2.9373862,-39.572536,-38.349836)" gradientUnits="userSpaceOnUse" xlink:href="#linearGradient3346"/><filter id="filter3391" width="1.134" height="1.336" x="-.067" y="-.168" color-interpolation-filters="sRGB"><feGaussianBlur id="feGaussianBlur3393" stdDeviation=".14"/></filter><filter id="filter3436" width="1.158" height="1.28" x="-.079" y="-.14" color-interpolation-filters="sRGB"><feGaussianBlur id="feGaussianBlur3438" stdDeviation=".319"/></filter><linearGradient id="linearGradient3440" x1="16" x2="20.5" y1="27.5" y2="25.5" gradientTransform="translate(-8.0000004,15.967633)" gradientUnits="userSpaceOnUse" xlink:href="#linearGradient3373"/><linearGradient id="linearGradient3448" x1="16" x2="21.5" y1="27" y2="27" gradientTransform="translate(-8.0000004,15.967633)" gradientUnits="userSpaceOnUse" xlink:href="#linearGradient3442"/><radialGradient id="radialGradient3458" cx="18" cy="14.19" r="5.505" fx="18" fy="14.19" gradientTransform="matrix(1.551329,0,0,0.2811779,-0.8402834,14.539516)" gradientUnits="userSpaceOnUse" xlink:href="#linearGradient3452"/><radialGradient id="radialGradient5790" cx="25.017" cy="13.192" r="9.751" fx="25.017" fy="13.192" gradientTransform="matrix(1,0,0,0.4950025,0,5.5549725)" gradientUnits="userSpaceOnUse" xlink:href="#linearGradient3171"/><linearGradient id="linearGradient4333"><stop offset="0" style="stop-color:#000;stop-opacity:1" id="stop4335"/><stop offset="1" style="stop-color:#000;stop-opacity:0" id="stop4337"/></linearGradient><radialGradient id="radialGradient7042" cx="37.375" cy="33.188" r="14.625" fx="37.375" fy="33.188" gradientTransform="matrix(1,0,0,0.226496,0,25.67067)" gradientUnits="userSpaceOnUse" xlink:href="#linearGradient4333"/><linearGradient id="linearGradient4505" x1="25.765" x2="3" y1="41.882" y2="34" gradientTransform="translate(0.80906163,-0.64668861)" gradientUnits="userSpaceOnUse" xlink:href="#linearGradient4481"/><radialGradient id="radialGradient3436" cx="10.25" cy="5.5" r="1.5" fx="10.25" fy="5.5" gradientTransform="translate(0.24999735,3.9731725e-7)" gradientUnits="userSpaceOnUse" xlink:href="#linearGradient3430"/><radialGradient id="radialGradient3751" cx="10.25" cy="5.5" r="1.5" fx="10.25" fy="5.5" gradientTransform="translate(0.24999735,3.9731725e-7)" gradientUnits="userSpaceOnUse" xlink:href="#linearGradient3430"/><linearGradient id="linearGradient10034" x1="30.376" x2="22" y1="25.27" y2="19" gradientTransform="matrix(1.0293043,0,0,1.0285483,-8.6685031,-7.8568524)" gradientUnits="userSpaceOnUse" xlink:href="#linearGradient3198-0"/><linearGradient id="linearGradient10030" x1="25.269" x2="17.799" y1="12.038" y2="5.035" gradientUnits="userSpaceOnUse" xlink:href="#linearGradient3198-0"/><linearGradient id="linearGradient10028" x1="27.681" x2="21.44" y1="14.243" y2="9.277" gradientUnits="userSpaceOnUse" xlink:href="#linearGradient3228-2"/><radialGradient id="radialGradient10023" cx="27.5" cy="22.614" r="6.5" fx="27.5" fy="22.614" gradientTransform="matrix(1.5911065,-0.078428,0.09931994,1.9582576,-26.381692,-25.566559)" gradientUnits="userSpaceOnUse" xlink:href="#linearGradient3346-7"/><linearGradient id="linearGradient10017" x1="29" x2="19" y1="33" y2="27" gradientTransform="matrix(1.0342194,0,0,1.0195661,-8.8212631,-7.9086211)" gradientUnits="userSpaceOnUse" xlink:href="#linearGradient3220-2"/><radialGradient id="radialGradient10014" cx="26.625" cy="26.577" r="12.5" fx="26.625" fy="26.577" gradientTransform="matrix(0.9811466,-0.3224151,0.1189352,0.3517503,-10.569189,16.752507)" gradientUnits="userSpaceOnUse" xlink:href="#linearGradient3189-5"/><linearGradient id="linearGradient10007" x1="17.605" x2="23" y1="18.313" y2="18.313" gradientTransform="matrix(1.0342194,0,0,1.019566,-7.9366017,-8.5876911)" gradientUnits="userSpaceOnUse" xlink:href="#linearGradient3198-0"/><radialGradient id="radialGradient10003" cx="18" cy="14.19" r="5.505" fx="18" fy="14.19" gradientTransform="matrix(1.0342194,0,0,0.1874519,-0.560189,9.6930112)" gradientUnits="userSpaceOnUse" xlink:href="#linearGradient3452-2"/><linearGradient id="linearGradient9997" x1="16" x2="21.5" y1="27" y2="27" gradientTransform="translate(-8.0000004,15.967633)" gradientUnits="userSpaceOnUse" xlink:href="#linearGradient3442-4"/><linearGradient id="linearGradient9995" x1="16" x2="20.5" y1="27.5" y2="25.5" gradientTransform="translate(-8.0000004,15.967633)" gradientUnits="userSpaceOnUse" xlink:href="#linearGradient3373-0"/><linearGradient id="linearGradient9987" x1="27.217" x2="22.036" y1="15.984" y2="7.135" gradientUnits="userSpaceOnUse" xlink:href="#linearGradient4402-6"/><radialGradient id="radialGradient9985" cx="25.017" cy="13.192" r="9.751" fx="25.017" fy="13.192" gradientTransform="matrix(1,0,0,0.4950025,0,5.5549725)" gradientUnits="userSpaceOnUse" xlink:href="#linearGradient3171-9"/><radialGradient id="radialGradient9973" cx="37.375" cy="33.188" r="14.625" fx="37.375" fy="33.188" gradientTransform="matrix(1,0,0,0.226496,0,25.67067)" gradientUnits="userSpaceOnUse" xlink:href="#linearGradient4333-1"/><linearGradient id="linearGradient4333-1"><stop offset="0" style="stop-color:#000;stop-opacity:1" id="stop4335-5"/><stop offset="1" style="stop-color:#000;stop-opacity:0" id="stop4337-9"/></linearGradient><filter id="filter3436-7" width="1.158" height="1.28" x="-.079" y="-.14" color-interpolation-filters="sRGB"><feGaussianBlur id="feGaussianBlur3438-1" stdDeviation=".319"/></filter><filter id="filter3391-1" width="1.134" height="1.336" x="-.067" y="-.168" color-interpolation-filters="sRGB"><feGaussianBlur id="feGaussianBlur3393-7" stdDeviation=".14"/></filter><linearGradient id="linearGradient3171-9"><stop offset="0" style="stop-color:#fd0000;stop-opacity:1" id="stop3173-0"/><stop offset="1" style="stop-color:#6a0000;stop-opacity:1" id="stop3175-9"/></linearGradient><linearGradient id="linearGradient3189-5"><stop offset="0" style="stop-color:#e40000;stop-opacity:1" id="stop3191-9"/><stop offset="1" style="stop-color:#490000;stop-opacity:1" id="stop3193-4"/></linearGradient><linearGradient id="linearGradient3198-0"><stop offset="0" style="stop-color:#fff;stop-opacity:1" id="stop3200-6"/><stop offset="1" style="stop-color:#fff;stop-opacity:0" id="stop3202-1"/></linearGradient><linearGradient id="linearGradient3220-2"><stop offset="0" style="stop-color:#373737;stop-opacity:1" id="stop3222-6"/><stop offset="1" style="stop-color:#fff;stop-opacity:1" id="stop3224-1"/></linearGradient><linearGradient id="linearGradient3228-2"><stop offset="0" style="stop-color:#373737;stop-opacity:1" id="stop3230-7"/><stop offset="1" style="stop-color:#cfcfcf;stop-opacity:.67826086" id="stop3232-2"/></linearGradient><linearGradient id="linearGradient3346-7"><stop offset="0" style="stop-color:#737373;stop-opacity:1" id="stop3348-1"/><stop offset="1" style="stop-color:#000;stop-opacity:0" id="stop3350-7"/></linearGradient><linearGradient id="linearGradient3373-0"><stop offset="0" style="stop-color:#000;stop-opacity:1" id="stop3375-4"/><stop offset="1" style="stop-color:#373737;stop-opacity:0" id="stop3377-8"/></linearGradient><linearGradient id="linearGradient3442-4"><stop offset="0" style="stop-color:#000;stop-opacity:1" id="stop3444-9"/><stop offset="1" style="stop-color:#000;stop-opacity:0" id="stop3446-5"/></linearGradient><linearGradient id="linearGradient3452-2"><stop offset="0" style="stop-color:#fff;stop-opacity:1" id="stop3454-6"/><stop offset="1" style="stop-color:#fff;stop-opacity:0" id="stop3456-6"/></linearGradient><linearGradient id="linearGradient4402-6"><stop offset="0" style="stop-color:#e80000;stop-opacity:1" id="stop4404-8"/><stop offset="1" style="stop-color:#490000;stop-opacity:1" id="stop4406-9"/></linearGradient><radialGradient id="radialGradient4927" cx="37.375" cy="33.188" r="14.625" fx="37.375" fy="33.188" gradientTransform="matrix(0.4206982,0,0,0.10417298,-7.5093889,25.52542)" gradientUnits="userSpaceOnUse" xlink:href="#linearGradient4333-1"/><radialGradient id="radialGradient4929" cx="27.5" cy="22.614" r="6.5" fx="27.5" fy="22.614" gradientTransform="matrix(1.5911065,-0.078428,0.09931994,1.9582576,-33.490665,-10.65446)" gradientUnits="userSpaceOnUse" xlink:href="#linearGradient3346-7"/><linearGradient id="linearGradient4931" x1="27.681" x2="21.44" y1="14.243" y2="9.277" gradientTransform="matrix(1.2744752,0,0,1.0288787,-20.421903,32.094433)" gradientUnits="userSpaceOnUse" xlink:href="#linearGradient3228-2"/><linearGradient id="linearGradient4933" x1="25.269" x2="17.799" y1="12.038" y2="5.035" gradientTransform="matrix(1.2818465,0,0,0.9398128,-20.591442,33.074158)" gradientUnits="userSpaceOnUse" xlink:href="#linearGradient3198-0"/><linearGradient id="linearGradient4935" x1="29" x2="19" y1="33" y2="27" gradientTransform="matrix(1.0342194,0,0,1.0195661,-15.930237,7.0034779)" gradientUnits="userSpaceOnUse" xlink:href="#linearGradient3220-2"/><radialGradient id="radialGradient4937" cx="26.625" cy="26.577" r="12.5" fx="26.625" fy="26.577" gradientTransform="matrix(0.9811466,-0.3224151,0.1189352,0.3517503,-17.678162,31.664606)" gradientUnits="userSpaceOnUse" xlink:href="#linearGradient3189-5"/><radialGradient id="radialGradient4939" cx="25.017" cy="13.192" r="9.751" fx="25.017" fy="13.192" gradientTransform="matrix(1.2818465,0,0,0.46520969,-20.591443,21.257925)" gradientUnits="userSpaceOnUse" xlink:href="#linearGradient3171-9"/><linearGradient id="linearGradient4941" x1="27.217" x2="22.036" y1="15.984" y2="7.135" gradientTransform="matrix(1.2818465,0,0,0.9398128,-20.591443,16.037291)" gradientUnits="userSpaceOnUse" xlink:href="#linearGradient4402-6"/><linearGradient id="linearGradient4943" x1="30.376" x2="22" y1="25.27" y2="19" gradientTransform="matrix(1.0293043,0,0,1.0285483,-15.777477,7.0552466)" gradientUnits="userSpaceOnUse" xlink:href="#linearGradient3198-0"/><linearGradient id="linearGradient4945" x1="17.605" x2="23" y1="18.313" y2="18.313" gradientTransform="matrix(1.0342194,0,0,1.019566,-15.045575,6.3244079)" gradientUnits="userSpaceOnUse" xlink:href="#linearGradient3198-0"/><radialGradient id="radialGradient4947" cx="18" cy="14.19" r="5.505" fx="18" fy="14.19" gradientTransform="matrix(1.0342194,0,0,0.1874519,-7.6691625,24.60511)" gradientUnits="userSpaceOnUse" xlink:href="#linearGradient3452-2"/><linearGradient id="linearGradient4949" x1="16" x2="20.5" y1="27.5" y2="25.5" gradientTransform="translate(-8.0000004,15.967633)" gradientUnits="userSpaceOnUse" xlink:href="#linearGradient3373-0"/><linearGradient id="linearGradient4951" x1="16" x2="21.5" y1="27" y2="27" gradientTransform="translate(-8.0000004,15.967633)" gradientUnits="userSpaceOnUse" xlink:href="#linearGradient3442-4"/><linearGradient id="linearGradient5041" x1="20" x2="23" y1="12" y2="12" gradientTransform="matrix(0.8660254,0.5,-0.5,0.8660254,28.795491,-5.4863174)" gradientUnits="userSpaceOnUse" xlink:href="#linearGradient4414"/><linearGradient id="linearGradient5044" x1="9.697" x2="33.232" y1="24.661" y2="24.661" gradientTransform="matrix(0.8660254,0.5,-0.5,0.8660254,28.795491,-5.4863174)" gradientUnits="userSpaceOnUse" xlink:href="#linearGradient4387"/><linearGradient id="linearGradient5046" x1="19.5" x2="23.5" y1="28.5" y2="28.5" gradientTransform="matrix(0.8660254,0.5,-0.5,0.8660254,28.795491,-5.4863174)" gradientUnits="userSpaceOnUse" xlink:href="#linearGradient4430"/><filter id="filter5288" width="1.193" height="1.491" x="-.097" y="-.245"><feGaussianBlur id="feGaussianBlur5290" stdDeviation="1.408"/></filter><filter id="filter5292" width="1.19" height="1.565" x="-.095" y="-.283"><feGaussianBlur id="feGaussianBlur5294" stdDeviation="1.408"/></filter><filter id="filter5296" width="1.187" height="1.633" x="-.093" y="-.317"><feGaussianBlur id="feGaussianBlur5298" stdDeviation="1.408"/></filter><filter id="filter5300" width="1.184" height="1.683" x="-.092" y="-.341"><feGaussianBlur id="feGaussianBlur5302" stdDeviation="1.408"/></filter><filter id="filter5304" width="1.181" height="1.717" x="-.09" y="-.358"><feGaussianBlur id="feGaussianBlur5306" stdDeviation="1.408"/></filter><filter id="filter5308" width="1.178" height="1.741" x="-.089" y="-.37"><feGaussianBlur id="feGaussianBlur5310" stdDeviation="1.408"/></filter><radialGradient id="radialGradient5320" cx="31.533" cy="42.718" r="10" fx="31.533" fy="42.718" gradientTransform="matrix(0.94117645,5.1573811e-8,-1.0232898e-7,0.3,1.7336228,30.18469)" gradientUnits="userSpaceOnUse" xlink:href="#linearGradient5314"/><filter id="filter5336" width="1.323" height="1.537" x="-.162" y="-.269"><feGaussianBlur id="feGaussianBlur5338" stdDeviation="2.781"/></filter><filter id="filter5362" width="1.164" height="1.76" x="-.082" y="-.38"><feGaussianBlur id="feGaussianBlur5364" stdDeviation="1.255"/></filter></defs><path style="fill:url(#radialGradient5320);fill-opacity:1;stroke:none" id="path5312" d="m 42,43 a 10,3 0 1 1 -20,0 10,3 0 1 1 20,0 z" transform="matrix(1.1125,0,0,0.66666667,-3.725,15.333333)"/><path id="path4471" d="m 38.437753,18.816514 5.37131,-9.4632026 c 0,0 -11.431748,-5.9127633 -16.485239,-2.6544699 C 16,14 18,6 8,6 3.864361,6 4.674862,25.56208 8,28 c 4.591619,3.366477 8.846572,-0.496652 16.809063,-7.646688 7.909325,-7.102295 13.62869,-1.536798 13.62869,-1.536798 z" style="fill:url(#linearGradient4505);fill-opacity:1;stroke:none;filter:url(#filter5336)"/><path id="rect4403" d="M 42.932987,9.0268224 23.932986,41.935788 c -0.276142,0.478293 0.275466,1.313741 1.232052,1.866025 0.956584,0.552285 1.955907,0.612268 2.23205,0.133974 l 19,-32.908965 -3.464101,-1.9999996 z" style="fill:url(#linearGradient5044);fill-opacity:1;fill-rule:nonzero;stroke:url(#linearGradient5046);stroke-width:1;stroke-linejoin:round"/><g id="g4908" transform="translate(4.608974,-0.412099)"><path id="path4331-5" d="m 14.366918,28.982658 a 6.1527114,1.5235282 0 0 1 -12.3054229,0 6.1527114,1.5235282 0 1 1 12.3054229,0 z" style="opacity:.07000002;fill:url(#radialGradient4927);fill-opacity:1;stroke:none"/><path id="path3420-6" d="m 27.43751,11 a 4.43751,2.1843004 0 1 1 -8.87502,0 4.43751,2.1843004 0 1 1 8.87502,0 z" transform="matrix(1.2818465,0,0,0.9398128,-20.591443,33.893397)" style="opacity:.2;fill:#000;fill-opacity:1;stroke:#000;stroke-width:.61406273;stroke-linecap:round;stroke-linejoin:round;stroke-miterlimit:0;stroke-opacity:1;stroke-dasharray:none;display:inline;filter:url(#filter3436-7)"/><path id="path3159-3" d="m 14.062124,17.708921 c -0.517109,-1.019566 -9.8250835,-1.019566 -10.3421935,0 0,1.529349 -1.5513289,6.117396 -1.5513289,10.19566 0,4.078264 5.1710969,6.627179 6.7224259,6.627179 1.5513285,0 6.7224255,-2.548915 6.7224255,-6.627179 0,-4.078264 -1.551329,-8.666311 -1.551329,-10.19566 z" style="fill:url(#radialGradient4929);fill-opacity:1;fill-rule:evenodd;stroke:none;display:inline"/><path id="path3157-9" d="m 14.369376,43.412099 a 5.47835,1.97835 0 1 1 -10.9566989,0 5.47835,1.97835 0 1 1 10.9566989,0 z" style="fill:url(#linearGradient4931);fill-opacity:1;stroke:#888a85;stroke-width:1.04329979;stroke-linecap:round;stroke-linejoin:round;stroke-miterlimit:0;stroke-opacity:1;stroke-dasharray:none;display:inline"/><path id="path3236-4" d="m 13.391027,43.412099 a 4.4999994,1.2722688 0 1 1 -8.9999985,0 4.4999994,1.2722688 0 1 1 8.9999985,0 z" style="fill:none;stroke:url(#linearGradient4933);stroke-width:1;stroke-linecap:round;stroke-linejoin:round;stroke-miterlimit:0;stroke-opacity:1;stroke-dasharray:none;display:inline"/><path id="path3163-8" d="m 6.3054795,33.512195 c 1.034219,1.019566 2.068439,2.548914 2.068439,8.156528 0,1.019566 0.139877,1.529349 0.517109,1.529349 0.377232,0 0.51711,-0.509783 0.51711,-1.529349 0,-5.607614 1.0342185,-7.136962 2.0684395,-8.156528" style="fill:url(#linearGradient4935);fill-opacity:1;fill-rule:evenodd;stroke:#888a85;stroke-width:1;stroke-linecap:round;stroke-linejoin:miter;stroke-opacity:1;display:inline"/><path id="path3179-1" d="m 1.8910265,26.412099 c 0,6 5.448672,8.119661 7.000001,8.119661 1.5513285,0 6.9999985,-2.119661 6.9999985,-8.119661" style="fill:url(#radialGradient4937);fill-opacity:1;fill-rule:evenodd;stroke:none;display:inline"/><path id="path5788-2" d="m 15.22436,26.375232 a 6.3333333,1.5293491 0 0 1 -12.6666666,0 6.3333333,1.5293491 0 1 1 12.6666666,0 z" style="fill:url(#radialGradient4939);fill-opacity:1;stroke:url(#linearGradient4941);stroke-width:.67398685;stroke-linecap:round;stroke-linejoin:round;stroke-miterlimit:0;stroke-opacity:1;stroke-dasharray:none;display:inline"/><path id="path10032" d="m 13.484776,19.724599 -10.4999995,6.90625 c -0.4718541,2.107139 0.576116,3.883935 1.96875,5.15625 0.699766,0.639309 1.477853,1.154497 2.1875,1.5 0.709647,0.345503 1.365522,0.53125 1.75,0.53125 0.384589,0 1.04584,-0.207652 1.7812495,-0.5625 0.735411,-0.354848 1.561296,-0.852436 2.28125,-1.53125 1.439909,-1.357629 2.499328,-3.322833 1.84375,-5.78125 -0.0015,-0.01036 -0.0015,-0.02089 0,-0.03125 -0.326276,-2.610206 -0.67143,-3.938005 -1.3125,-6.1875 z" style="fill:none;stroke:url(#linearGradient4943);stroke-width:1;stroke-linecap:round;stroke-linejoin:miter;stroke-opacity:1;display:inline"/><path id="path3266-9" d="m 5.1217035,19.578766 3.102657,0 c 0,0 -1.551329,6.117396 -1.551329,8.666311 0,1.529349 1.03422,2.548915 0.51711,3.058697 -0.51711,0.509784 -3.102658,-1.47887 -3.102658,-4.078263 0,-1.019566 0.51711,-4.078264 1.03422,-7.646745 z" style="fill:url(#linearGradient4945);fill-opacity:1;fill-rule:evenodd;stroke:none;display:inline"/><path id="path2385-3" d="m 14.07516,17.639007 a 5.1841339,1.2399459 0 1 1 -7.84e-4,-0.02154" style="fill:none;stroke:#919191;stroke-width:.97392541;stroke-linecap:round;stroke-linejoin:round;stroke-miterlimit:0;stroke-opacity:1;stroke-dasharray:none;display:inline"/><path id="path3358-9" d="m 13.891028,18.877076 c -0.333333,0.333334 -2.307791,0.699935 -5.1622375,0.699935 -2.854445,0 -4.50443,-0.366601 -4.837763,-0.699935" style="fill:none;stroke:#fff;stroke-width:.67398679;stroke-linecap:round;stroke-linejoin:round;stroke-miterlimit:0;stroke-opacity:1;display:inline"/><path id="path3450-0" d="m 14.891028,25.9121 c 0,0.570364 -2.333333,1.333333 -6.0126805,1.366601 -3.679347,0.03327 -5.987321,-0.796237 -5.987321,-1.366601" style="fill:none;stroke:url(#radialGradient4947);stroke-width:.67398679;stroke-linecap:round;stroke-linejoin:round;stroke-miterlimit:0;stroke-opacity:1;display:inline"/><path id="path3395-8" d="m 7.5576935,34.9121 c 0,0 0.333334,0.666667 1.333334,0.639227 1,-0.02744 1.3333335,-0.639227 1.3333335,-0.639227" style="opacity:.35;fill:none;stroke:#000;stroke-width:.66666669px;stroke-linecap:round;stroke-linejoin:round;stroke-opacity:1;display:inline"/><path id="path3363-8" d="m 7.9999996,43.467633 2.4999994,-1 2.46875,0.125 -4.9687494,0.875 z" transform="matrix(1.0342194,0,0,1.019566,0.6172729,-1.40602)" style="fill:url(#linearGradient4949);fill-opacity:1;fill-rule:evenodd;stroke:url(#linearGradient4951);stroke-width:.64922434px;stroke-linecap:round;stroke-linejoin:round;stroke-opacity:1;display:inline;filter:url(#filter3391-1)"/><path id="path3354-5" d="m 14.062124,17.708921 c -0.671098,-1.796822 -9.6710975,-1.796822 -10.3421935,0 0,1.529349 -1.828904,6.124913 -1.828904,10.203178 0,4.078264 5.448672,6.619662 7.000001,6.619662 1.5513285,0 6.9999985,-2.541398 6.9999985,-6.619662 0,-4.078265 -1.828902,-8.673829 -1.828902,-10.203178 z" style="fill:none;stroke:#919191;stroke-width:1;stroke-linecap:round;stroke-linejoin:miter;stroke-opacity:1"/></g><path style="fill:url(#linearGradient5041);fill-opacity:1;fill-rule:nonzero;stroke:#babdb6;stroke-width:1;stroke-linejoin:round" id="path4410" d="m 42.932987,9.0268224 -5,8.6602536 c -0.276143,0.478293 0.275466,1.313741 1.23205,1.866026 0.956585,0.552284 1.955909,0.612267 2.232051,0.133974 l 5,-8.660254 z"/><path id="path4407" d="m 11.5,43.5 a 2.5,1.1666666 0 1 1 -5,0 2.5,1.1666666 0 1 1 5,0 z" style="fill:#d3d7cf;fill-opacity:1;fill-rule:nonzero;stroke:#babdb6;stroke-width:1.20761478" transform="matrix(0.69282031,0.4,-0.42857137,0.74230738,57.072509,-25.863549)"/></svg>